<?xml version="1.0" encoding="utf-8"?>
<!-- Generator: Adobe Illustrator 16.0.0, SVG Export Plug-In . SVG Version: 6.00 Build 0)  -->
<!DOCTYPE svg PUBLIC "-//W3C//DTD SVG 1.1//EN" "http://www.w3.org/Graphics/SVG/1.1/DTD/svg11.dtd">
<svg version="1.1" xmlns="http://www.w3.org/2000/svg" xmlns:xlink="http://www.w3.org/1999/xlink" x="0px" y="0px" width="600px"
	 height="400px" viewBox="0 0 600 400" enable-background="new 0 0 600 400" xml:space="preserve">
<g id="Layer_1">
	<path fill="#ffff4d" stroke="#000000" stroke-miterlimit="10" d="M175.333,207.667c-16.14-4.783-40.598-2.896-49.083-20.584
		c-4.03-8.402-6.12-18.607-8.268-27.399c-2.371-9.705-4.872-19.91-6.315-29.685c-1.023-6.933-2.697-14.124-2.276-21.274
		c4.806-1.85,10.818-0.43,15.608,0.292c5.179,0.781,10.404,1.136,15.409,1.908c9.905,1.527,19.411,2.658,28.851,5.817
		c8.853,2.963,18.31,4.849,25.325,12.34c5.332,5.694,9.775,15.188,12.174,22.493c0.462,1.408,0.784,3.294,1.576,4.424"/>
	<path fill="#ffff4d" stroke="#000000" stroke-miterlimit="10" d="M320.667,138.333c-2.489-3.643-6.999-5.701-8.936-9.39
		c-2.518-4.797-4.442-9.871-4.398-15.594c0.033-4.309,1.523-9.517,3.594-13c4.564-7.679,12.884-12.702,17.471-20.008
		c1.042-1.659,1.823-3.526,2.519-5.327c1.542-3.992,3.418-6.833,5.873-10.477c3.193-4.739,5.602-10.013,8.87-14.612
		c4.093-5.758,10.022-13.282,18.349-11.267c8.453,2.046,12.609,17.651,16,24.105c3.027,5.764,4.202,11.901,7.024,17.874
		c2.357,4.988,4.153,10.235,5.979,15.422c2.404,6.834,4.735,13.358,5.981,20.309c0.979,5.458,2.34,10.935,1.099,16.447
		c-1.568,6.97-4.15,14.764-10.658,18.685c-5.371,3.235-11.851,4.552-17.118,7.229c-3.49,1.774-6.688,5.227-10.572,2.528
		c-1.377-0.957-2.638-2.581-4.085-3.582c-1.262-0.874-3.008-3.102-4.602-3.4c-1.664-2.824-7.034-3.437-8.445-6.219
		c-4.005-0.766-8.259-4.013-12.203-5.464c-3.941-1.45-7.898-3.21-12.074-4.259"/>
</g>
<g id="ears">
	<path fill="#000000" stroke="#000000" stroke-miterlimit="10" d="M191,202.667c-3.883,2.402-9.124,2.437-13.666,3.352
		c-4.796,0.966-10.542,0.94-15.334-0.019c-4.939-0.989-9.99-2.085-14.999-3.352c-4.909-1.24-10.425-1.637-14.742-4.241
		c-3.391-2.046-7.991-4.249-10.518-7.149c-3.234-3.714-3.701-8.788-5.659-13.267c-3.921-8.973-7.388-16.83-9.768-26.306
		c-2.197-8.747-4.825-17.439-7.397-26.344c-1.364-4.724-2.382-9.77-3.326-14.6c-0.934-4.78-3.151-8.874-2.868-14.016
		c8.768-3.674,22.172-0.978,31.201,0.683c10.145,1.865,20.217,3.318,30.425,4.926c9.569,1.507,18.183,5.018,26.389,9.675
		c4.108,2.332,8.702,4.194,12.026,7.899c2.989,3.332,4.744,7.893,6.809,11.852c2.246,4.307,3.512,9.071,5.001,13.666
		c1.646,5.081,3.097,9.003,3.09,14.808c-1.203-5.174-1.547-9.343-3.998-14.159c-1.935-3.801-4.057-7.797-7.426-10.315
		c-3.476-2.598-7.673-4.39-11.16-6.823c-3.518-2.455-6.819-5.707-10.749-7.602c-6.617-3.191-13.874-3.621-21.333-4.667
		c-8.013-1.123-16.81-2.641-24.95-2.283c-0.716,8.518,7.775,14.497,9.267,22.167c-6.103-4.542-14.148-6.234-19.584-11.516
		c-0.735,4.279,2.976,10.276,4.193,14.04c1.552,4.8,2.45,9.765,3.674,14.593c2.459,9.698,3.626,20.816,4.733,31
		c1.138,10.462,10.291,12.799,19.017,16c4.379,1.606,8.729,3.058,13.316,3.992c4.488,0.915,9.219,2.813,13.667,3.008"/>
	<path fill="#000000" stroke="#000000" stroke-miterlimit="10" d="M321.667,139.333c-1.563-0.687-2.965-2.778-4.399-3.935
		c-1.488-1.2-3.463-2.59-5.019-3.982c-3.196-2.86-6.833-7.18-8.591-10.742c-4.859-9.848,2.065-21.595,6.268-30.35
		c3.116-6.493,6.675-14.781,11.434-20.205c4.146-4.726,7.342-9.904,11.313-14.811c4.431-5.473,7.07-11.883,10.902-17.734
		c3.079-4.701,6.351-9.274,9.328-13.91c2.042-3.182,4.499-6.436,7.277-9.014c3.474-3.223,5.542-0.711,7.152,3.34
		c1.182,2.975,2.952,5.179,4.353,7.99c1.426,2.863,1.952,6.221,3.655,9.202c1.304,2.281,1.586,4.673,2.732,7.15
		c2.277,4.921,4.849,8.983,6.927,14.017c2.142,5.188,4.142,10.211,6.333,15.307c2.045,4.754,2.699,9.549,4.343,14.253
		c2.261,6.469,4.171,12.167,5.668,18.784c3.232,14.291,4.22,30.002,3.623,44.582c-7.087,2.648-13.348,5.942-20.318,9.39
		c-2.679,1.325-5.829,2.84-8.725,3.594c-2.452,0.639-4.971,2.339-7.511,2.513c-3.327,0.228-3.393-1.687-6.038-3.365
		c3.796-2.899,9.266-3.945,13.3-6.732c4.014-2.773,8.26-6.269,11.91-9.416c9.122-7.864,3.125-22.649-0.843-31.757
		c-4.488-10.303-5.537-22.67-9.159-33.412c-3.542-10.505-7.408-20.638-8.915-31.323c-0.105,4.875-2.171,10.958-3.992,15.224
		c-1.105,2.587-5.062,9.434-7.958,8.958c-0.462-8.804-1.184-17.713-1.035-26.513c-6.095,14.9-16.917,26.994-26.026,40.366
		c-4.92,7.221-10.85,14.011-15.488,21.258c-3.844,6.004-5.317,12.096-2.899,18.615c0.701,1.89,1.684,3.454,2.398,5.325"/>
</g>
<g id="body">
	<path fill="#ffff4d" stroke="#000000" stroke-miterlimit="10" d="M214.333,279c0,5.582,1.083,10.718,1.342,16.167
		c0.135,2.841,1.284,5.542,1.82,8.337c0.526,2.745,1.231,5.55,1.838,8.329c1.254,5.744,4.593,10.687,6.288,16.171
		c1.068,3.456,3.083,6.528,4.503,9.865c1.169,2.747,2.461,5.574,3.754,8.293c0.966,2.031,2.785,5.467,2.124,7.842
		c-0.331,1.189-1.386,1.381-2.216,2.292c-0.85,0.933-1.374,1.956-1.955,3.028c-2.722,5.02-5.609,11.28-3.333,17.005
		c2.064,5.192,10.029,5.004,14.996,5.004c5.557,0,11.384-0.615,16.008-3.496c1.63-1.016,3.009-2.435,4.167-4
		c1.545-2.092,1.171-3.339,3.792-2.967c1.553,0.22,4.678,0.709,5-1.537c0.206-1.436-2.082-2.929-3.107-3.698
		c3.293-3.455,5.583-7.871,7.47-12.298c1.81-4.247,5.066-7.877,6.518-12.286c0.503,2.871,0.547,5.931,1.12,8.786
		c0.65,3.242,1.241,6.159,2.533,9.196c0.687,1.614,0.887,3.245,1.797,4.805c0.931,1.593,2.001,3.044,2.912,4.661
		c0.649,1.155,1.49,2.083,1.995,3.334c0.417,1.034,0.085,3.119,0.793,3.875c2.474,2.644,5.57-3.774,6.212-5.354
		c1.508,0.354,2.76,1.128,4.267,1.508c0.759,1.711,5.878,2.68,7.658,3.102c2.65,0.628,5.68,0.286,8.371,0.833
		c2.762,0.562,5.932,0.443,8.791,0.028c2.562-0.373,5.724-0.798,7.834-2.325c0.54-0.391,1.11-0.888,1.402-1.471
		c1.15-0.219,3.229-2.692,3.764-3.737c0.946-1.845,1.262-4.12,1.533-6.133c0.261-1.936-0.325-3.088-1.646-4.495
		c-1.152-1.231-4.583-3.123-2.997-5.1c0.912-1.137,3.27-1.053,4.539-1.038c3.463,0.041,6.846,1.308,10.278,1.308
		c3.554,0,7.162-0.821,10.646-1.334c2.095-0.308,4.196-0.666,6.218-1.134c2.139-0.494,4.12-0.331,6.29-0.533
		c1.883-0.176,4.012-1.073,5.869-1.021c2.184,0.062,4.095,2.084,5.964,3.054c2.483,1.288,5.647,1.851,8.305,2.139
		c2.781,0.302,5.447,0.089,8.041-0.337c2.772-0.455,4.122-1.484,5.455-4.045c1-1.921,0.926-2.3,2.942-3.035
		c1.516-0.553,3.081-1.312,4.394-2.259c1.064-0.768,2.024-1.844,3.041-2.624c0.965-0.74,1.993-1.555,2.627-2.57
		c0.824-1.319,1.352-2.399,2.341-3.5c0.821-0.912,1.594-2.068,2.005-3.125c0.971-2.495,1.697-4.829,2.2-7.492
		c0.6-3.183,1.1-5.955,0.454-9.143c-0.557-2.749-1.267-5.634-1.959-8.414c-0.631-2.534-1.922-4.973-2.833-7.42
		c-1.025-2.753-1.182-5.922-2.626-8.58c-0.638-1.174-1.939-2.351-2.736-3.432c-0.156-0.056-0.293,0.009-0.447-0.053
		c-0.058-1.998-3.133-4.606-4.403-5.93c-0.918-0.957-1.313-2.313-2.333-3.346c-0.7-0.709-1.49-1.219-2.154-1.992
		c-2.586-3.01-4.907-6.242-7.438-9.387c-2.287-2.841-5.012-5.068-7.483-7.696c-1.346-1.432-2.76-2.664-4.164-3.992
		c-1.807-1.709-2.597-4.122-4.381-5.854c-1.382-1.342-2.93-2.653-4.342-3.946c-0.777-0.712-2.612-1.668-2.826-2.666"/>
	<path fill="none" stroke="#000000" stroke-miterlimit="10" d="M380.5,243.5c-2.862,2.065-4.461,5.604-7.047,8.022
		c-2.62,2.45-4.388,5.361-6.803,7.972c-1.93,2.084-4.029,4.046-6.303,5.834c-2.195,1.728-4.213,3.381-6.24,5.259
		c-4.859,4.505-10.961,8.008-16.832,11c-1.646,0.839-3.291,1.397-4.963,2.041c-3.199,1.231-6.221,3.26-9.529,4.125
		c-2.686,0.703-5.17,1.491-7.809,2.033c-0.85,0.175-1.662,0.737-2.496,0.977c-8.316,2.387-16.756,3.039-25.325,3.028
		c-1.82-0.002-3.28,0.416-5.051,0.499c-4.532,0.214-8.379-0.39-12.79-1.008c-2.99-0.42-6.092-0.562-9.168-0.825
		c-3.821-0.328-7.575-1.499-11.371-2.12c-1.805-0.296-3.611-0.721-5.305-1.376c-1.674-0.646-3.313-0.627-4.995-1.206
		c-2.608-0.9-5.34-2.153-8.158-2.844c-3.134-0.768-6.176-1.538-9.163-2.95c-2.425-1.146-4.45-2.547-7.008-3.337"/>
</g>
<g id="tail">
	<path fill="#000000" stroke="#000000" stroke-miterlimit="10" d="M380.75,243.5c2.53-6.442,6.509-12.41,8.194-19.305
		c0.897-3.672,1.452-7.47,2.318-11.195c0.681-2.926,1.892-5.978,0.432-8.969c-0.142-0.085-0.277-0.074-0.406,0.031
		c-0.095,0.104-0.092,0.11,0.007,0.019c2.09-2.166,3.363-4.889,5.218-7.274c2.288-2.943,4.438-6.283,6.669-9.356
		c2.253-3.104,2.865-7.143,7.056-6.187c4.781,1.091,9.377,3.459,13.95,5.424c2.578,1.107,4.975,1.323,7.488,2.368
		c2.902,1.206,5.718,1.495,8.562,2.646c2.917,1.183,5.659,1.637,8.551,2.306c3.397,0.786,6.243,2.83,9.407,4.041
		c6.191,2.37,12.438,6.035,19.004,7.451c3.313,0.715,6.078,1.7,9.244,3.074c1.465,0.636,2.927,0.809,4.357,1.365
		c2.082,0.81,3.914,2.212,6.086,2.877c2.946,0.902,5.603,1.828,8.369,3.383c2.262,1.271,4.263,6.132,7.469,5.602
		c-2.396,4.033-3.379,8.995-5.488,13.254c-2.529,5.108-4.756,10.232-7.493,15.253c-2.412,4.422-4.91,8.563-6.444,13.248
		c-1.098,3.354-3.46,8.938-7.742,8.638c-1.592-0.111-3.666-1.64-5.22-2.193c-2.634-0.939-4.846-1.856-7.399-3.063
		c-2.694-1.272-5.333-2.732-7.689-3.938c-2.396-1.226-8.248-1.881-9.603-3.756c-9.4-3.209-17.88-8.935-26.883-12.446
		c-3.068-1.197-6.579-2.258-9.444-3.854c-1.352-0.754-2.509-1.852-4.043-2.455c-2.057-0.81-4.489-0.837-6.53-1.476
		c-3.377-1.056-6.482-3.621-10.183-3.359c-3.26,0.23-4.866,2.642-7.284,4.428c-2.287,1.689-4.664,3.266-6.278,5.669"/>
</g>
<g id="face">
	<path fill="#ffff4d" stroke="#000000" stroke-miterlimit="10" d="M175.452,208.074c-0.196,16.334-3.566,34.977,6.586,49.227
		c5.722,8.032,14.757,13.108,23.474,17.275c9.882,4.725,20.083,8.903,30.508,12.268c34.701,11.199,74.862,10.229,107.05-8.064
		c26.786-15.225,55.036-49.199,46.837-82.174c-2.116-8.51-6.861-16.235-13.218-22.241c-7.235-6.835-15.6-12.814-23.256-19.194
		c-15.25-12.708-37.025-19.167-56.714-18.349c-16.045,0.667-32.634,2.46-48.478,5.069c-13.94,2.295-29.694,5.638-40.905,14.798"/>
</g>
<g id="mouth">
	<path fill="#ff5050" stroke="#000000" stroke-miterlimit="10" d="M277.996,227.492c5.201-2.232,13.278,0.321,19.333-0.667
		c4.838-0.79,9.192-5.353,13.899-5.232c3.871,18.267,1.615,42.513-13.881,54.583c-8.686,6.766-16.578-5.543-19.536-13.168
		c-3.635-9.369-3.864-20.357-1.78-30.148c0.461-2.169,0.434-4.372,1.298-6.034"/>
</g>
<g id="cheeks">
	<path fill="#ff99ff" stroke="#000000" stroke-miterlimit="10" d="M218.663,232.825c-10.773-2.02-13.463,14.573-12.016,22
		c1.959,10.056,16.422,14.466,25.347,11.148c7.345-2.73,14.875-15.889,11.185-23.665c-4.123-8.688-18.269-9.483-26.516-9.483
		c-0.444,0-0.889,0-1.333,0"/>
	<path fill="#ff99ff" stroke="#000000" stroke-miterlimit="10" d="M373.33,220.825c-6.787-6.885-18.799-4.605-23.352,3.169
		c-2.139,3.653-2.918,11.009-1.982,15.498c1.18,5.665,5.525,6.29,8.781,10.553c14.678,4.853,23.229-13.891,18.553-26.553"/>
</g>
<g id="eyes">
	<path fill="none" stroke="#000000" stroke-miterlimit="10" d="M373.334,220.167c0.736,1.149,1.998,1.854,2,3.333"/>
	<path fill="#000000" stroke="#000000" stroke-miterlimit="10" d="M240,180.167c-4.225-2.465-11.65-0.378-14.676,2.397
		c-3.714,3.406-6.667,7.649-7.656,12.603c-0.91,4.561-1.629,10.569,1.326,14.332c3.14,3.998,8.662,6.863,13.673,7.334
		c9.788,0.92,18.506-1.444,22-11.016c3.665-10.039-0.881-18.558-7.389-25.927c-3.121-0.923-7.284-2.446-10.611-1.057"/>
	<path fill="#ffffff" stroke="#000000" stroke-miterlimit="10" d="M246.417,179.833c-2.961-0.731-6.291-1.328-8.693,0.824
		c-2.483,2.224-2.32,4.894-1.106,7.731c1.12,2.619,2.021,5.151,5.057,5.938c2.067,0.536,7.131,1.096,7.786-1.701
		c0.231-0.095,0.442,0.033,0.664-0.084c2.331-1.227,1.294-5.052,1.294-6.958"/>
	<path fill="#000000" stroke="#000000" stroke-miterlimit="10" d="M326.5,171.333c-3.127,0-4.979,0.542-7.199,2.492
		c-2.281,2.002-3.313,4.351-3.467,7.35c-0.154,2.948-0.256,6.421,1.162,8.992c1.057,1.915,3.008,5.059,4.955,6.212
		c4.732,2.804,12.229,2.771,17.178,0.913c2.869-1.077,3.805-3.167,4.205-6.125c0.371-2.75,0.838-6.127,0.172-8.834
		c-1.045-4.238-4.83-7.832-8.506-10.037c-2.678-1.607-7.986-2.405-10.834-0.796"/>
	<path fill="#ffffff" stroke="#000000" stroke-miterlimit="10" d="M326.334,172c-2.85-0.271-2.318,5.068-1.639,6.622
		c0.986,2.251,3.705,3.418,5.971,3.878c2.27,0.461,5.174,0.451,6.703-1.454c1.92-2.389,0.387-4.511-0.369-6.879"/>
</g>
<a href="http://pokemondb.net/pokedex/pichu">
	<g id="nose">
		<path fill="#000000" stroke="#000000" stroke-miterlimit="10" d="M300.167,209.5c-0.945,0.16-3.792,0.975-3.771,1.976
		c1.6,0.155,3.403,1.071,4.938,0.19c0.426-0.244,1.414-1.11,1.174-1.675c-0.268-0.624-1.906-0.325-2.508-0.325"/>
	</g>
</a>
<g id="foot">
	<path fill="#ffff4d" stroke="#000000" stroke-miterlimit="10" d="M358,282.833c-10.154,2.126-8.395,20.074-6.594,27.187
		c2.873,11.344,9.727,19.874,18.936,27.147c4.201,3.318,7.797,7.576,12.074,10.657c4.533,3.265,9.529,4.716,14.943,5.999
		c12.67,3.002,17.668-7.538,17.641-18.656c-0.025-9.696-2.879-19.475-8.408-27.251c-2.574-3.619-5.764-6.818-8.5-10.175
		c-3.039-3.726-5.674-7.134-9.182-9.892c-4.543-3.57-8.092-6.124-13.93-6.998c-5.578-0.836-12.055-1.059-16.314,2.648"/>
</g>
<g id="detail-strokes">
	<path fill="none" stroke="#000000" stroke-miterlimit="10" d="M283.217,342.641c0.443-1.181,0.788-2.399,1.01-3.642"/>
	<path fill="none" stroke="#000000" stroke-miterlimit="10" d="M339.673,354.64c-0.353-0.156-0.722-0.573-1.038-0.807
		c7.39-8.051,16.387-16.157,18.699-27.333"/>
	<path fill="none" stroke="#000000" stroke-miterlimit="10" d="M293.333,294.5c-13.073,12.25-10.585,32.047-9.483,48.158"/>
	<path fill="none" stroke="#000000" stroke-miterlimit="10" d="M352,287c-0.479,4.707,4.639,9.274,8.5,11"/>
	<path fill="none" stroke="#000000" stroke-miterlimit="10" d="M363,282c3.542,4.196,3.483,10.407,8,14"/>
	<path fill="none" stroke="#000000" stroke-miterlimit="10" d="M337.25,174.5c-1.408-2.754-8.61-4.56-11.25-2.5"/>
</g>
<g id="mouth-shade">
	<path fill="#ff2f2f" stroke="#000000" stroke-miterlimit="10" d="M300.75,226c5.586,0.4,8.476,7.899,11.943,10.98
		c0.357-4.815,0.14-10.73-1.737-14.937c-3.888-0.228-6.988,1.378-10.206,2.956"/>
</g>
</svg>
